<?xml version="1.0" encoding="UTF-8" standalone="no"?>
<!DOCTYPE svg PUBLIC "-//W3C//DTD SVG 1.1//EN" "http://www.w3.org/Graphics/SVG/1.1/DTD/svg11.dtd">
<svg width="100%" height="100%" viewBox="0 0 1182 1182" version="1.1" xmlns="http://www.w3.org/2000/svg" xmlns:xlink="http://www.w3.org/1999/xlink" xml:space="preserve" xmlns:serif="http://www.serif.com/" style="fill-rule:evenodd;clip-rule:evenodd;stroke-linejoin:round;stroke-miterlimit:2;">
    <rect x="-35.433" y="-35.433" width="1251.97" height="1251.97"/>
    <g transform="matrix(1.35107,0,0,1.31998,-69.2398,61.9625)">
        <g transform="matrix(464.023,0,0,464.023,62.4693,376.393)">
            <path d="M0.428,0.011C0.315,0.011 0.186,0.004 0.04,-0.009L0.04,-0.58C0.113,-0.587 0.183,-0.592 0.251,-0.595C0.318,-0.598 0.381,-0.6 0.44,-0.6C0.545,-0.6 0.629,-0.594 0.692,-0.583C0.755,-0.572 0.801,-0.554 0.83,-0.53C0.858,-0.505 0.873,-0.472 0.873,-0.431C0.873,-0.399 0.865,-0.372 0.848,-0.351C0.831,-0.329 0.805,-0.313 0.772,-0.302C0.739,-0.291 0.698,-0.285 0.649,-0.285L0.257,-0.285L0.257,-0.336L0.463,-0.336C0.493,-0.336 0.516,-0.338 0.531,-0.341C0.546,-0.344 0.556,-0.35 0.562,-0.358C0.567,-0.366 0.57,-0.378 0.57,-0.394C0.57,-0.411 0.567,-0.423 0.56,-0.431C0.553,-0.439 0.542,-0.445 0.525,-0.448C0.508,-0.451 0.483,-0.453 0.448,-0.453C0.429,-0.453 0.409,-0.452 0.388,-0.452C0.366,-0.451 0.343,-0.449 0.318,-0.448L0.34,-0.486L0.34,-0.101L0.328,-0.137C0.335,-0.137 0.341,-0.137 0.347,-0.136C0.377,-0.133 0.412,-0.132 0.451,-0.132C0.5,-0.132 0.533,-0.137 0.552,-0.146C0.571,-0.155 0.58,-0.172 0.58,-0.197C0.58,-0.211 0.577,-0.222 0.571,-0.229C0.564,-0.236 0.554,-0.241 0.539,-0.245C0.524,-0.247 0.502,-0.249 0.473,-0.249L0.283,-0.249L0.285,-0.306L0.699,-0.307C0.744,-0.307 0.782,-0.302 0.813,-0.292C0.843,-0.282 0.865,-0.267 0.881,-0.248C0.896,-0.228 0.903,-0.203 0.903,-0.173C0.903,-0.13 0.887,-0.094 0.854,-0.068C0.821,-0.041 0.77,-0.021 0.701,-0.008C0.632,0.005 0.541,0.011 0.428,0.011Z" style="fill:white;fill-rule:nonzero;"/>
        </g>
        <g transform="matrix(464.023,0,0,464.023,458.277,376.393)">
            <path d="M0.431,-0.225L0.305,-0.271L0.015,-0.589L0.365,-0.589L0.518,-0.388L0.639,-0.348L0.962,-0L0.608,-0L0.431,-0.225ZM0.315,-0.324L0.556,-0.293L0.338,-0L-0.01,-0L0.315,-0.324ZM0.437,-0.351L0.599,-0.589L0.947,-0.589L0.66,-0.304L0.437,-0.351Z" style="fill:white;fill-rule:nonzero;"/>
        </g>
        <g transform="matrix(418.387,0,0,418.387,62.4693,698.368)">
            <path d="M0.342,-0.599C0.415,-0.599 0.473,-0.59 0.518,-0.572C0.562,-0.554 0.595,-0.525 0.616,-0.485C0.637,-0.445 0.648,-0.391 0.648,-0.323C0.648,-0.214 0.62,-0.132 0.565,-0.075C0.509,-0.018 0.42,0.01 0.297,0.01C0.257,0.01 0.215,0.007 0.172,0.001C0.129,-0.005 0.091,-0.013 0.059,-0.024L0.092,-0.182C0.116,-0.175 0.148,-0.169 0.187,-0.164C0.226,-0.159 0.259,-0.156 0.287,-0.156C0.313,-0.156 0.333,-0.159 0.348,-0.165C0.363,-0.171 0.373,-0.181 0.379,-0.194C0.385,-0.206 0.388,-0.225 0.388,-0.248C0.369,-0.239 0.345,-0.232 0.317,-0.227C0.289,-0.222 0.261,-0.219 0.232,-0.219C0.169,-0.219 0.118,-0.233 0.079,-0.262C0.04,-0.291 0.02,-0.334 0.02,-0.393C0.02,-0.462 0.048,-0.514 0.104,-0.548C0.16,-0.582 0.239,-0.599 0.342,-0.599ZM0.327,-0.443C0.312,-0.443 0.301,-0.439 0.294,-0.432C0.287,-0.424 0.283,-0.411 0.283,-0.392C0.283,-0.372 0.287,-0.358 0.295,-0.349C0.303,-0.339 0.315,-0.335 0.332,-0.335C0.341,-0.335 0.351,-0.336 0.36,-0.339C0.369,-0.341 0.377,-0.344 0.384,-0.348C0.385,-0.381 0.382,-0.405 0.373,-0.42C0.364,-0.435 0.349,-0.443 0.327,-0.443Z" style="fill:white;fill-rule:nonzero;"/>
        </g>
        <g transform="matrix(418.387,0,0,418.387,62.4693,698.368)">
        </g>
        <g transform="matrix(418.387,0,0,418.387,341.951,698.368)">
            <path d="M0.314,0.01C0.217,0.01 0.144,-0.014 0.095,-0.062C0.045,-0.11 0.02,-0.188 0.02,-0.295C0.02,-0.4 0.047,-0.478 0.102,-0.527C0.156,-0.576 0.233,-0.6 0.334,-0.6C0.431,-0.6 0.504,-0.576 0.554,-0.527C0.603,-0.478 0.628,-0.401 0.628,-0.295C0.628,-0.188 0.601,-0.111 0.547,-0.063C0.493,-0.014 0.415,0.01 0.314,0.01ZM0.324,-0.146C0.339,-0.146 0.35,-0.157 0.356,-0.18C0.362,-0.202 0.365,-0.24 0.365,-0.295C0.365,-0.349 0.362,-0.387 0.356,-0.41C0.35,-0.433 0.339,-0.444 0.324,-0.444C0.309,-0.444 0.298,-0.433 0.292,-0.41C0.286,-0.387 0.283,-0.349 0.283,-0.295C0.283,-0.24 0.286,-0.202 0.292,-0.18C0.298,-0.157 0.309,-0.146 0.324,-0.146Z" style="fill:white;fill-rule:nonzero;"/>
        </g>
        <g transform="matrix(418.387,0,0,418.387,341.951,698.368)">
        </g>
        <g transform="matrix(418.387,0,0,418.387,613.064,698.368)">
            <path d="M0.04,-0.629L0.3,-0.674L0.3,-0L0.04,-0L0.04,-0.629ZM0.301,-0.266L0.536,-0.293L0.702,-0L0.407,-0L0.301,-0.266ZM0.301,-0.266L0.408,-0.52L0.689,-0.52L0.539,-0.278L0.301,-0.266Z" style="fill:white;fill-rule:nonzero;"/>
        </g>
        <g transform="matrix(418.387,0,0,418.387,898.4,698.368)">
        </g>
    </g>
    <g transform="matrix(1.06,0,0,0.483577,-35.4331,60.9948)">
        <rect x="0" y="0" width="1181.1" height="118.11" style="fill:white;"/>
    </g>
    <g transform="matrix(1.06,0,0,0.483577,-35.4331,1062.99)">
        <rect x="0" y="0" width="1181.1" height="118.11" style="fill:white;"/>
    </g>
</svg>
